<svg viewBox="0 0 900 900" fill="none" xmlns="http://www.w3.org/2000/svg">
    <circle cx="450" cy="450" r="450" fill="#D9D9D9" />
    <path
        d="M657.235 666.358C658.975 669.258 656.655 672.738 653.175 672.738H489.602C487.862 672.738 486.121 672.158 485.541 670.998L409.555 538.747C407.235 534.687 400.855 536.427 400.855 541.068V668.678C400.855 670.998 399.114 672.738 396.794 672.738H245.982C243.662 672.738 241.922 670.998 241.922 668.678V271.346C241.922 269.026 243.662 267.286 245.982 267.286H396.794C399.114 267.286 400.855 269.026 400.855 271.346V394.896C400.855 399.536 407.235 401.276 409.555 397.216L485.541 269.026C486.121 267.866 487.862 267.286 489.602 267.286H653.175C656.655 267.286 658.975 270.766 657.235 273.666L543.546 464.501C542.966 465.662 542.966 467.982 543.546 469.142L657.235 666.358Z"
        fill="black" />
    <path
        d="M401.146 507.096C396.979 507.096 393.021 505.429 390.104 502.513L331.145 443.554C325.103 437.513 325.103 427.513 331.145 421.471C337.186 415.429 347.186 415.429 353.228 421.471L401.146 469.388L508.229 362.304C514.271 356.263 524.27 356.263 530.312 362.304C536.354 368.346 536.354 378.346 530.312 384.388L412.187 502.513C409.271 505.429 405.312 507.096 401.146 507.096Z"
        fill="white" />
</svg>