<svg width="1920" height="1080" viewBox="0 0 1920 1080" fill="none" xmlns="http://www.w3.org/2000/svg">
    <path
        d="M729.984 557.98C729.984 567.681 728.454 576.796 725.395 585.324C722.335 593.853 717.973 601.275 712.309 607.59C706.71 613.905 699.971 618.885 692.094 622.531C684.216 626.177 675.46 628 665.824 628H619.242C609.542 628 600.72 626.177 592.777 622.531C584.835 618.885 578.031 613.905 572.367 607.59C566.768 601.275 562.439 593.853 559.379 585.324C556.319 576.796 554.789 567.681 554.789 557.98C554.789 548.345 556.319 539.296 559.379 530.832C562.439 522.303 566.768 514.882 572.367 508.566C578.031 502.186 584.835 497.173 592.777 493.527C600.72 489.816 609.542 487.961 619.242 487.961H665.824C675.46 487.961 684.216 489.816 692.094 493.527C699.971 497.173 706.71 502.186 712.309 508.566C717.973 514.882 722.335 522.303 725.395 530.832C728.454 539.296 729.984 548.345 729.984 557.98ZM709.965 557.98C709.965 551.079 708.956 544.602 706.938 538.547C704.919 532.492 701.99 527.219 698.148 522.727C694.372 518.169 689.75 514.589 684.281 511.984C678.878 509.315 672.725 507.98 665.824 507.98H619.242C612.341 507.98 606.124 509.315 600.59 511.984C595.121 514.589 590.466 518.169 586.625 522.727C582.849 527.219 579.919 532.492 577.836 538.547C575.818 544.602 574.809 551.079 574.809 557.98C574.809 564.882 575.818 571.392 577.836 577.512C579.919 583.566 582.849 588.872 586.625 593.43C590.466 597.922 595.121 601.47 600.59 604.074C606.124 606.678 612.341 607.98 619.242 607.98H665.824C672.725 607.98 678.878 606.678 684.281 604.074C689.75 601.47 694.372 597.922 698.148 593.43C701.99 588.872 704.919 583.566 706.938 577.512C708.956 571.392 709.965 564.882 709.965 557.98ZM775.59 628H755.57V487.961H765.531C772.042 487.961 778.943 488.807 786.234 490.5C793.591 492.193 801.078 494.634 808.695 497.824C816.312 501.014 823.897 504.888 831.449 509.445C839.066 513.938 846.423 519.048 853.52 524.777C860.616 530.507 867.289 536.757 873.539 543.527C879.789 550.233 885.388 557.395 890.336 565.012V487.961H910.355V628H890.336C890.336 617.714 888.546 607.818 884.965 598.312C881.384 588.742 876.599 579.725 870.609 571.262C864.62 562.798 857.719 555.018 849.906 547.922C842.094 540.76 833.923 534.478 825.395 529.074C816.931 523.671 808.402 519.243 799.809 515.793C791.215 512.277 783.142 509.934 775.59 508.762V628ZM1020.02 628H1000V507.98H929.203V487.961H1090.82V507.98H1020.02V628ZM1271.29 628H1244.24L1202.25 587.961H1140.92V568.234H1221.29C1225.46 568.234 1229.37 567.453 1233.01 565.891C1236.66 564.263 1239.82 562.082 1242.48 559.348C1245.22 556.613 1247.37 553.423 1248.93 549.777C1250.49 546.066 1251.27 542.128 1251.27 537.961C1251.27 533.794 1250.49 529.888 1248.93 526.242C1247.37 522.596 1245.22 519.439 1242.48 516.77C1239.82 514.035 1236.66 511.887 1233.01 510.324C1229.37 508.762 1225.46 507.98 1221.29 507.98H1129.69V628H1109.67V487.961H1221.29C1228.19 487.961 1234.67 489.296 1240.73 491.965C1246.78 494.569 1252.05 498.15 1256.55 502.707C1261.1 507.199 1264.68 512.473 1267.29 518.527C1269.96 524.582 1271.29 531.06 1271.29 537.961C1271.29 544.211 1270.22 550.135 1268.07 555.734C1265.92 561.268 1262.96 566.249 1259.18 570.676C1255.41 575.038 1250.95 578.684 1245.8 581.613C1240.73 584.478 1235.23 586.398 1229.3 587.375L1271.29 628ZM1456.16 628H1436.14V587.961H1324.42V568.039H1436.14V507.98H1364.36C1357.52 507.98 1351.08 509.315 1345.02 511.984C1338.97 514.589 1333.7 518.169 1329.2 522.727C1324.71 527.219 1321.13 532.492 1318.46 538.547C1315.86 544.602 1314.55 551.079 1314.55 557.98V628H1294.54V557.98C1294.54 551.535 1295.35 545.35 1296.98 539.426C1298.67 533.436 1301.01 527.87 1304.01 522.727C1307.07 517.518 1310.71 512.798 1314.95 508.566C1319.24 504.27 1323.96 500.591 1329.11 497.531C1334.31 494.471 1339.88 492.128 1345.8 490.5C1351.73 488.807 1357.91 487.961 1364.36 487.961H1456.16V628ZM1565.73 628H1545.71V507.98H1474.91V487.961H1636.53V507.98H1565.73V628ZM1820.22 557.98C1820.22 567.681 1818.69 576.796 1815.63 585.324C1812.57 593.853 1808.21 601.275 1802.54 607.59C1796.94 613.905 1790.21 618.885 1782.33 622.531C1774.45 626.177 1765.69 628 1756.06 628H1709.48C1699.78 628 1690.95 626.177 1683.01 622.531C1675.07 618.885 1668.27 613.905 1662.6 607.59C1657 601.275 1652.67 593.853 1649.61 585.324C1646.55 576.796 1645.02 567.681 1645.02 557.98C1645.02 548.345 1646.55 539.296 1649.61 530.832C1652.67 522.303 1657 514.882 1662.6 508.566C1668.27 502.186 1675.07 497.173 1683.01 493.527C1690.95 489.816 1699.78 487.961 1709.48 487.961H1756.06C1765.69 487.961 1774.45 489.816 1782.33 493.527C1790.21 497.173 1796.94 502.186 1802.54 508.566C1808.21 514.882 1812.57 522.303 1815.63 530.832C1818.69 539.296 1820.22 548.345 1820.22 557.98ZM1800.2 557.98C1800.2 551.079 1799.19 544.602 1797.17 538.547C1795.15 532.492 1792.22 527.219 1788.38 522.727C1784.61 518.169 1779.98 514.589 1774.52 511.984C1769.11 509.315 1762.96 507.98 1756.06 507.98H1709.48C1702.58 507.98 1696.36 509.315 1690.82 511.984C1685.36 514.589 1680.7 518.169 1676.86 522.727C1673.08 527.219 1670.15 532.492 1668.07 538.547C1666.05 544.602 1665.04 551.079 1665.04 557.98C1665.04 564.882 1666.05 571.392 1668.07 577.512C1670.15 583.566 1673.08 588.872 1676.86 593.43C1680.7 597.922 1685.36 601.47 1690.82 604.074C1696.36 606.678 1702.58 607.98 1709.48 607.98H1756.06C1762.96 607.98 1769.11 606.678 1774.52 604.074C1779.98 601.47 1784.61 597.922 1788.38 593.43C1792.22 588.872 1795.15 583.566 1797.17 577.512C1799.19 571.392 1800.2 564.882 1800.2 557.98Z"
        fill="#1F1F1D" />
    <path
        d="M580.242 735.587C581.815 738.209 579.718 741.355 576.571 741.355H428.701C427.128 741.355 425.555 740.83 425.031 739.782L356.339 620.227C354.242 616.557 348.474 618.13 348.474 622.325V737.684C348.474 739.782 346.901 741.355 344.803 741.355H208.469C206.372 741.355 204.799 739.782 204.799 737.684V378.496C204.799 376.399 206.372 374.826 208.469 374.826H344.803C346.901 374.826 348.474 376.399 348.474 378.496V490.185C348.474 494.38 354.242 495.953 356.339 492.283L425.031 376.399C425.555 375.35 427.128 374.826 428.701 374.826H576.571C579.718 374.826 581.815 377.972 580.242 380.594L477.467 553.109C476.943 554.157 476.943 556.255 477.467 557.304L580.242 735.587Z"
        fill="black" />
    <path
        d="M348.737 591.614C344.97 591.614 341.392 590.108 338.755 587.471L285.456 534.173C279.994 528.711 279.994 519.671 285.456 514.209C290.917 508.748 299.957 508.748 305.419 514.209L348.737 557.526L445.54 460.723C451.001 455.261 460.041 455.261 465.503 460.723C470.965 466.184 470.965 475.224 465.503 480.686L358.718 587.471C356.082 590.108 352.503 591.614 348.737 591.614Z"
        fill="white" />
</svg>